<svg version="1" xmlns="http://www.w3.org/2000/svg" width="933.333" height="933.333" viewBox="0 0 700.000000 700.000000"><path d="M281.9 35.9c-5.4 2.4-8.5 5.3-11 10.1-2.1 4.1-2.2 5.4-2.3 29.1l-.1 24.8-6 4.2c-39.7 28-64 72.3-66 120.5-.2 6-.5 13-.5 15.5v4.7l-13.2 7.7c-7.3 4.2-14.9 8.7-16.8 10-1.9 1.2-8 4.8-13.5 8s-12 7-14.5 8.5c-6.8 4.1-43.1 25.5-46.5 27.4-1.6.9-4.3 2.5-6 3.5-1.6 1-10.9 6.4-20.5 12.1-25.7 15.1-30.7 18.6-39.1 27C8.7 366.5-.2 389.1.6 413.5c.2 6 .5 11.9.8 13 4.6 20.7 11.4 33.6 24.8 47.2 10.8 11.1 24.9 19.2 40.3 23.4 6.5 1.8 10.7 2.2 22.5 2.2 21.5 0 30.8-2.9 55-17.2 12.5-7.4 51.2-30.2 52-30.7.3-.1.6 2.3.8 5.4.1 3.2.7 8.4 1.3 11.7.6 3.3 1.2 6.9 1.4 8 2.4 14.2 10 33.8 18.9 48.5 12.4 20.6 32.3 40.6 52.6 52.9 14.5 8.8 39.2 17.9 53.2 19.6 2.3.3 4.4.8 4.6 1 .3.2.5 11.8.6 25.7l.1 25.3 2.8 4.7c4.8 8.2 14.4 12.1 23.6 9.6 5.2-1.5 8.7-4.3 11.8-9.6l2.8-4.7.2-25c.1-13.8.2-25.3.2-25.6.1-.4 2.7-1 5.9-1.4 14.1-1.7 38-10.9 53.7-20.5 25-15.3 46.4-39.3 58.8-66 8.2-17.7 10.9-28.3 14.3-55.7l.5-4.1 8.7 5.3c8.3 5 27.3 16.3 34.3 20.4 29.4 17 32 18.2 46.3 21.2 11.6 2.4 28.8 2 39.8-1 18.2-4.8 34-15 47.3-30.4 1.8-2.1 6.2-9.1 8.9-14.1 12.8-23.4 13.6-54.1 2-78.6-4.3-9.2-7.2-13.6-14.3-21.9-8.5-9.9-17.6-16-60.9-41.2-12.3-7.1-31.3-18.3-56.7-33.4-16.5-9.7-35.7-21.1-42.7-25.2l-12.8-7.5-.1-11.2c-.1-12.2-.3-14.4-2-26.1-5.7-40.1-28.8-78.2-61.9-101.8l-8.6-6.2-.1-24c0-26.4-.4-29.2-5.5-34.4-4.2-4.3-7.6-6-13.2-6.5-5.7-.6-10.6.9-15.2 4.7-6.3 5.3-7.4 9-7.4 26.9v15.7l-3.2-1c-1.8-.5-6.2-1.4-9.8-2-3.6-.5-7.6-1.2-9-1.5-3.8-.7-27.7-.6-34.5.1-6.3.7-19.6 3.2-22.1 4.2-1.2.4-1.4-1.8-1.4-14.3 0-8.2-.5-16.6-1.1-18.7-1.2-4.5-5.8-10-10.2-12.2-4.6-2.3-12.5-2.6-16.8-.6z"/></svg>